<svg width="16" height="16" viewBox="0 0 16 16" fill="none" xmlns="http://www.w3.org/2000/svg">
<rect width="16" height="16" rx="2" fill="#F04142" fill-opacity="0.12"/>
<path d="M12.323 10.284C11.982 10.273 11.685 10.119 11.443 9.811C11.003 9.239 10.783 8.161 10.783 6.566V5.213H9.331C9.32 6.071 9.221 6.841 9.034 7.523C9.54 7.897 10.013 8.315 10.475 8.777L10.035 9.448C9.617 9.019 9.188 8.634 8.77 8.282C8.407 9.14 7.879 9.844 7.186 10.394L6.603 9.877C7.296 9.349 7.802 8.645 8.132 7.787C7.78 7.534 7.417 7.303 7.065 7.105L7.483 6.489C7.78 6.665 8.066 6.841 8.352 7.039C8.484 6.467 8.55 5.862 8.561 5.213H7.285V4.443H8.561V3.002H9.331V4.443H11.564V6.566C11.564 7.82 11.674 8.689 11.905 9.184C11.993 9.393 12.081 9.503 12.169 9.503C12.246 9.503 12.323 9.371 12.389 9.107C12.455 8.821 12.499 8.403 12.521 7.853L13.126 8.161C13.071 9.107 12.961 9.712 12.785 9.976C12.653 10.174 12.499 10.284 12.323 10.284ZM3.182 4.399H4.744V2.969H5.547V4.399H6.889V5.169H5.547V6.841C5.987 6.72 6.427 6.588 6.845 6.456V7.226C6.416 7.358 5.987 7.468 5.547 7.578V9.327C5.547 9.965 5.239 10.284 4.623 10.284H3.6L3.424 9.525C3.743 9.558 4.051 9.58 4.348 9.58C4.612 9.58 4.744 9.426 4.744 9.129V7.776C4.194 7.897 3.633 8.007 3.072 8.117L2.885 7.369C3.523 7.281 4.139 7.16 4.744 7.028V5.169H3.182V4.399ZM4.425 10.636L5.085 10.955C4.689 11.813 4.216 12.55 3.688 13.166L3.039 12.693C3.567 12.121 4.029 11.428 4.425 10.636ZM6.779 10.911C7.01 11.549 7.219 12.231 7.395 12.968L6.592 13.144C6.449 12.352 6.262 11.659 6.031 11.065L6.779 10.911ZM9.056 10.757C9.386 11.428 9.672 12.154 9.914 12.946L9.122 13.122C8.902 12.286 8.638 11.56 8.308 10.922L9.056 10.757ZM11.201 10.504C11.861 11.329 12.356 12.044 12.708 12.66L12.059 13.122C11.685 12.451 11.19 11.714 10.563 10.911L11.201 10.504Z" fill="#F04142"/>
</svg>
